<?xml version="1.0" encoding="UTF-8" standalone="no"?>
<!DOCTYPE svg PUBLIC "-//W3C//DTD SVG 1.1//EN" "http://www.w3.org/Graphics/SVG/1.1/DTD/svg11.dtd">
<svg width="100%" height="100%" viewBox="0 0 696 536" version="1.1" xmlns="http://www.w3.org/2000/svg" xmlns:xlink="http://www.w3.org/1999/xlink" xml:space="preserve" xmlns:serif="http://www.serif.com/" style="fill-rule:evenodd;clip-rule:evenodd;stroke-linejoin:round;stroke-miterlimit:2;">
    <g transform="matrix(1,0,0,1,-1444,-914)">
        <g id="simplified" transform="matrix(1,0,0,1,2440.47,832.112)">
            <rect x="-995.931" y="81.968" width="695" height="535" style="fill:none;"/>
            <clipPath id="_clip1">
                <rect x="-995.931" y="81.968" width="695" height="535"/>
            </clipPath>
            <g clip-path="url(#_clip1)">
                <g>
                    <g transform="matrix(1,0,0,1,-1015.93,-832.112)">
                        <path d="M715.069,942.548C715.069,927.36 702.757,915.048 687.569,915.048L47.569,915.048C32.381,915.048 20.069,927.36 20.069,942.548L20.069,1422.55C20.069,1437.74 32.381,1450.05 47.569,1450.05L687.569,1450.05C702.757,1450.05 715.069,1437.74 715.069,1422.55L715.069,942.548ZM555.68,970.048L75.069,970.048C75.069,1068.14 75.069,1395.05 75.069,1395.05C194.238,1395.05 660.069,1395.05 660.069,1395.05L660.069,1058.24L580.18,1058.24C566.649,1058.24 555.68,1047.27 555.68,1033.74L555.68,970.048ZM636.736,972.38L607.705,943.349L592.98,958.074L622.011,987.105L592.98,1016.14L607.705,1030.86L636.736,1001.83L665.767,1030.86L680.492,1016.14L651.461,987.105L680.492,958.074L665.767,943.349L636.736,972.38Z" style="fill:rgb(230,230,230);"/>
                    </g>
                    <g transform="matrix(1,0,0,1,-2440.47,-832.112)">
                        <path d="M1962.91,1201.52C1969.53,1197.54 1973.58,1190.38 1973.58,1182.66C1973.58,1174.93 1969.53,1167.78 1962.91,1163.8L1736.97,1028.06C1730.18,1023.98 1721.71,1023.87 1714.81,1027.77C1707.91,1031.67 1703.64,1038.99 1703.64,1046.92L1703.64,1318.39C1703.64,1326.32 1707.91,1333.64 1714.81,1337.54C1721.71,1341.45 1730.18,1341.34 1736.97,1337.25L1962.91,1201.52Z" style="fill:rgb(230,230,230);"/>
                    </g>
                </g>
            </g>
        </g>
    </g>
</svg>
