<?xml version="1.0" encoding="UTF-8" standalone="no"?><!DOCTYPE svg PUBLIC "-//W3C//DTD SVG 1.1//EN" "http://www.w3.org/Graphics/SVG/1.1/DTD/svg11.dtd"><svg width="100%" height="100%" viewBox="0 0 16 16" version="1.1" xmlns="http://www.w3.org/2000/svg" xmlns:xlink="http://www.w3.org/1999/xlink" xml:space="preserve" xmlns:serif="http://www.serif.com/" style="fill-rule:evenodd;clip-rule:evenodd;stroke-linejoin:round;stroke-miterlimit:1.41421;"><rect id="we-icon" x="0" y="0" width="16" height="16" style="fill:none;"/><clipPath id="_clip1"><rect x="0" y="0" width="16" height="16"/></clipPath><g clip-path="url(#_clip1)"><path d="M12.955,11.982l-3.045,0l0,-8.667l3.045,0l0,8.667Zm-3.552,-1.275l-3.048,0l0,-3.57l3.048,0l0,3.57Zm-3.555,1.275l-3.045,0l0,-8.667l3.045,0l0,8.667Zm2.03,-11.982l0,0.007c-4.355,0.033 -7.878,3.655 -7.878,8.033c0,4.395 3.555,7.96 7.94,7.96c4.345,0 7.98,-3.485 8.045,-7.825l0.015,-0.018l0,-8.157l-8.122,0Z" style="fill:#fff;"/></g></svg>