<?xml version="1.0" encoding="UTF-8" standalone="no"?><!DOCTYPE svg PUBLIC "-//W3C//DTD SVG 1.1//EN" "http://www.w3.org/Graphics/SVG/1.1/DTD/svg11.dtd"><svg width="100%" height="100%" viewBox="0 0 95 95" version="1.1" xmlns="http://www.w3.org/2000/svg" xmlns:xlink="http://www.w3.org/1999/xlink" xml:space="preserve" xmlns:serif="http://www.serif.com/" style="fill-rule:evenodd;clip-rule:evenodd;stroke-linejoin:round;stroke-miterlimit:1.41421;"><rect id="we-logo-sym" x="0" y="0" width="94.051" height="94.052" style="fill:none;"/><path d="M76.152,70.436l-17.899,0l0,-50.95l17.899,0l0,50.95Zm-20.882,-7.495l-17.914,0l0,-20.985l17.914,0l0,20.985Zm-20.897,7.495l-17.899,0l0,-50.95l17.899,0l0,50.95Zm11.933,-70.436l0,0.044c-25.6,0.191 -46.306,21.485 -46.306,47.217c0,25.835 20.897,46.791 46.673,46.791c25.541,0 46.908,-20.484 47.29,-45.997l0.088,-0.103l0,-47.952l-47.745,0Z" style="fill:#999;"/></svg>