<?xml version="1.0" encoding="UTF-8" standalone="no"?><!DOCTYPE svg PUBLIC "-//W3C//DTD SVG 1.1//EN" "http://www.w3.org/Graphics/SVG/1.1/DTD/svg11.dtd"><svg width="100%" height="100%" viewBox="0 0 462 95" version="1.1" xmlns="http://www.w3.org/2000/svg" xmlns:xlink="http://www.w3.org/1999/xlink" xml:space="preserve" xmlns:serif="http://www.serif.com/" style="fill-rule:evenodd;clip-rule:evenodd;stroke-linejoin:round;stroke-miterlimit:1.41421;"><rect id="we-logo" x="0" y="0" width="461.44" height="94.052" style="fill:none;"/><clipPath id="_clip1"><rect x="0" y="0" width="461.44" height="94.052"/></clipPath><g clip-path="url(#_clip1)"><g><circle cx="47.827" cy="46.334" r="42.687" style="fill:#fff;"/><path d="M76.657,70.584l-17.899,0l0,-50.95l17.899,0l0,50.95Zm-20.882,-7.495l-17.914,0l0,-20.985l17.914,0l0,20.985Zm-20.897,7.495l-17.899,0l0,-50.95l17.899,0l0,50.95Zm11.933,-70.436l0,0.044c-25.6,0.191 -46.306,21.485 -46.306,47.217c0,25.835 20.897,46.791 46.673,46.791c25.541,0 46.908,-20.484 47.29,-45.997l0.088,-0.103l0,-47.952l-47.745,0Z" style="fill:url(#_Linear2);"/><path d="M121.523,62.383l1.778,0l7.803,-24.187l7.921,24.187l1.779,0l10.801,-30.42l-1.72,0l-9.919,29.011l-8.186,-25.41l-1.219,0l-8.156,25.41l-9.964,-29.011l-1.719,0l10.801,30.42Z" style="fill:#8c8c8c;"/><path d="M182.98,47.836c0.279,-4.394 -1.499,-8.994 -4.776,-11.977c-2.881,-2.631 -6.716,-3.983 -10.714,-3.983c-8.92,0 -15.533,6.804 -15.533,15.842c0,6.229 4.188,14.665 15.475,14.665c3.042,0 5.981,-0.704 8.523,-2.144c2.528,-1.485 4.673,-3.704 5.996,-6.659l-1.72,0c-2.365,4.761 -7.215,7.393 -12.741,7.393c-5.863,0.058 -14.049,-4.011 -14.151,-13.137l29.641,0Zm-29.597,-1.411c0.455,-7.686 6.716,-13.153 14.107,-13.153c6.996,-0.264 13.711,5.805 14.049,13.153l-28.156,0Z" style="fill:#8c8c8c;"/><path d="M188.182,62.28l1.44,0l0,-7.684c2.704,4.79 7.671,7.787 13.976,7.787c9.816,0 15.606,-7.391 15.606,-15.253c0,-8.025 -5.951,-15.254 -15.606,-15.254c-7.216,0.103 -11.786,3.88 -13.976,8.377l0,-7.671l0,-11.86l-1.44,0l0,41.558Zm29.582,-15.15c-0.059,6.599 -4.688,13.844 -14.328,13.844c-8.23,0 -13.976,-6.32 -13.976,-13.844c0,-7.965 6.129,-13.858 14.138,-13.858c7.788,0 14.166,5.673 14.166,13.8l0,0.058Z" style="fill:#8c8c8c;"/><path d="M260.558,47.836c0.279,-4.394 -1.485,-8.994 -4.76,-11.977c-2.882,-2.631 -6.718,-3.983 -10.715,-3.983c-8.921,0 -15.548,6.804 -15.548,15.842c0,6.229 4.203,14.665 15.491,14.665c3.04,0 5.98,-0.704 8.507,-2.144c2.542,-1.485 4.688,-3.704 6.011,-6.659l-1.72,0c-2.366,4.761 -7.217,7.393 -12.741,7.393c-5.865,0.058 -14.049,-4.011 -14.152,-13.137l29.627,0Zm-29.583,-1.411c0.456,-7.686 6.716,-13.153 14.108,-13.153c6.994,-0.264 13.696,5.805 14.049,13.153l-28.157,0Z" style="fill:#bfbfbf;"/><path d="M266.288,62.28l1.44,0l0,-17.104c0,-7.804 4.806,-11.786 11.611,-11.904c7.833,-0.102 11.61,4.997 11.61,13.021l0,15.987l1.44,0l0,-15.987c0,-8.921 -4.19,-14.196 -12.727,-14.417c-5.071,-0.119 -10.037,1.97 -11.976,7.128c0.042,-2.969 0.042,-4.982 0.042,-7.04l-1.44,0l0,30.316Z" style="fill:#bfbfbf;"/><path d="M328.612,31.964l-1.439,0l0,7.862c-1.557,-3.63 -6.715,-7.95 -13.902,-7.95c-9.759,0 -15.68,7.23 -15.68,15.254c0,7.862 5.761,15.254 15.68,15.254c6.289,0 11.212,-2.997 13.902,-8.39l0,4.729c0,8.231 -6.776,13.492 -13.725,13.492c-2.706,0 -6.012,-0.836 -8.759,-2.895c-2.131,-1.514 -3.131,-3.202 -3.866,-4.304l-1.792,0c2.572,5.524 8.684,8.61 14.636,8.61c2.294,0 6.056,-0.867 9.245,-3.146c3.203,-2.306 5.7,-6.054 5.7,-12.035l0,-26.481Zm-29.581,15.166c0,-8.186 6.334,-13.858 14.24,-13.858c5.275,0 8.803,2.204 10.993,5.011c2.188,2.792 3.071,6.202 3.071,8.729c0,3.85 -1.442,7.363 -3.909,9.89c-2.469,2.528 -5.953,4.072 -9.978,4.072c-9.716,0 -14.359,-7.246 -14.417,-13.785l0,-0.059Z" style="fill:#bfbfbf;"/><path d="M336.576,25.41l1.441,0l0,-4.615l-1.441,0l0,4.615Zm0,36.87l1.441,0l0,-30.316l-1.441,0l0,30.316Z" style="fill:#bfbfbf;"/><path d="M346.439,62.28l1.439,0l0,-17.104c0,-7.804 4.807,-11.786 11.609,-11.904c7.833,-0.102 11.61,4.997 11.61,13.021l0,15.987l1.441,0l0,-15.987c0,-8.921 -4.188,-14.196 -12.726,-14.417c-5.071,-0.119 -10.037,1.97 -11.978,7.128c0.044,-2.969 0.044,-4.982 0.044,-7.04l-1.439,0l0,30.316Z" style="fill:#bfbfbf;"/><path d="M409.291,47.836c0.278,-4.394 -1.499,-8.994 -4.776,-11.977c-2.864,-2.631 -6.702,-3.983 -10.713,-3.983c-8.905,0 -15.532,6.804 -15.532,15.842c0,6.229 4.202,14.665 15.473,14.665c3.057,0 5.982,-0.704 8.525,-2.144c2.541,-1.485 4.672,-3.704 5.996,-6.659l-1.705,0c-2.382,4.761 -7.23,7.393 -12.757,7.393c-5.862,0.058 -14.049,-4.011 -14.152,-13.137l29.641,0Zm-29.582,-1.411c0.441,-7.686 6.701,-13.153 14.093,-13.153c6.997,-0.264 13.711,5.805 14.049,13.153l-28.142,0Z" style="fill:#bfbfbf;"/><path d="M443.797,47.836c0.277,-4.394 -1.485,-8.994 -4.762,-11.977c-2.88,-2.631 -6.716,-3.983 -10.713,-3.983c-8.92,0 -15.548,6.804 -15.548,15.842c0,6.229 4.203,14.665 15.489,14.665c3.042,0 5.981,-0.704 8.524,-2.144c2.527,-1.485 4.673,-3.704 5.997,-6.659l-1.719,0c-2.368,4.761 -7.217,7.393 -12.743,7.393c-5.863,0.058 -14.047,-4.011 -14.152,-13.137l29.627,0Zm-29.583,-1.411c0.456,-7.686 6.716,-13.153 14.108,-13.153c6.995,-0.264 13.695,5.805 14.048,13.153l-28.156,0Z" style="fill:#bfbfbf;"/><path d="M450.057,62.28l1.44,0l0,-16.296c0,-8.097 3.688,-12.712 10.009,-12.712l0.439,0l0,-1.396c-2.571,0.147 -7.655,0.471 -10.448,6.29l0,-6.202l-1.44,0l0,30.316Z" style="fill:#bfbfbf;"/></g></g><defs><linearGradient id="_Linear2" x1="0" y1="0" x2="1" y2="0" gradientUnits="userSpaceOnUse" gradientTransform="matrix(-88.9354,106.453,-106.453,-88.9354,111.594,-12.5224)"><stop offset="0" style="stop-color:#ffc200;stop-opacity:1"/><stop offset="1" style="stop-color:#fe4600;stop-opacity:1"/></linearGradient></defs></svg>